<svg xmlns="http://www.w3.org/2000/svg" viewBox="0 0 841.9 595.3">
  <g fill="#61DAFB">
    <path d="M666.3 296.5c0-24.3-19.6-44-43.9-44-24.3 0-44 19.7-44 44s19.7 43.9 44 43.9 43.9-19.6 43.9-43.9zm-43.9-26.2c14.5 0 26.2 11.7 26.2 26.2s-11.7 26.2-26.2 26.2-26.2-11.7-26.2-26.2 11.7-26.2 26.2-26.2zM520.5 78.1c-16.3-28.3-58.3-24.6-58.3-24.6s-42-3.7-58.3 24.6c-13.7 23.9-23.7 56-30.8 93.8h178.2c-7.1-37.8-17.1-69.9-30.8-93.8zM290.9 296.5c0-24.3-19.7-44-44-44-24.3 0-43.9 19.7-43.9 44s19.6 43.9 43.9 43.9c24.3 0 44-19.6 44-43.9zm-44-26.2c14.5 0 26.2 11.7 26.2 26.2s-11.7 26.2-26.2 26.2-26.2-11.7-26.2-26.2 11.7-26.2 26.2-26.2zM299.7 78.1c-16.3-28.3-58.3-24.6-58.3-24.6s-42-3.7-58.3 24.6c-13.7 23.9-23.7 56-30.8 93.8h178.2c-7.1-37.8-17.1-69.9-30.8-93.8zM421 367.9c-28.3 0-51.3-23-51.3-51.3s23-51.3 51.3-51.3 51.3 23 51.3 51.3-23 51.3-51.3 51.3zm0-85c-18.6 0-33.7 15.1-33.7 33.7s15.1 33.7 33.7 33.7 33.7-15.1 33.7-33.7-15.1-33.7-33.7-33.7zM627.7 500.5c-16.3 28.3-58.3 24.6-58.3 24.6s-42 3.7-58.3-24.6c-13.7-23.9-23.7-56-30.8-93.8H658c-7.1 37.8-17.1 69.9-30.3 93.8zM421 595.3c-18.6 0-33.7-15.1-33.7-33.7s15.1-33.7 33.7-33.7 33.7 15.1 33.7 33.7-15.1 33.7-33.7 33.7zm0-51.2c-9.7 0-17.5 7.8-17.5 17.5s7.8 17.5 17.5 17.5 17.5-7.8 17.5-17.5-7.8-17.5-17.5-17.5zM214.5 500.5c-16.3 28.3-58.3 24.6-58.3 24.6s-42 3.7-58.3-24.6c-13.7-23.9-23.7-56-30.8-93.8h178.2c-7.1 37.8-17.1 69.9-30.8 93.8z"/>
  </g>
</svg>
